<svg width="111" height="112" viewBox="0 0 111 112" fill="none" xmlns="http://www.w3.org/2000/svg">
<path d="M64.719 15.4388C67.0665 15.4388 69.0603 14.0135 69.9712 12.0083C70.5278 10.7829 71.6553 9.66465 72.9559 10.0111C78.8833 11.59 83.2501 16.9948 83.2501 23.4196V88.1696C83.2501 95.8325 77.0381 102.045 69.3751 102.045H41.6251C33.9622 102.045 27.7501 95.8325 27.7501 88.1696V23.4196C27.7501 17.0329 32.0652 11.6541 37.939 10.0396C39.2534 9.67826 40.3979 10.8226 40.9749 12.0577C41.8996 14.0372 43.9169 15.4388 46.219 15.4388H64.719Z" fill="#9D4242" fill-opacity="0.7"/>
<g clip-path="url(#clip0_7_101)">
<path d="M86.2217 3.27563C90.0467 4.69678 93.3887 7.177 95.8574 10.426C98.326 13.675 99.8199 17.5594 100.164 21.6252L100.301 23.2454H100.342L100.321 23.4846L100.34 23.7043H100.303L100.164 25.3264C99.8173 29.3911 98.3226 33.2735 95.8545 36.5217C93.3864 39.77 90.0459 42.2508 86.2227 43.6741L81.3545 45.4856L82.5566 43.3215C81.5157 44.2984 80.2155 45.0325 78.7266 45.0325C77.1697 45.0324 75.8186 44.2313 74.7549 43.1877L76.0332 45.5032L71.165 43.6711C67.353 42.2363 64.0244 39.753 61.5625 36.5081C59.1006 33.2629 57.6058 29.3882 57.251 25.3303L57.1172 23.7981H57.0723L57.0947 23.5413L57.0684 23.2454H57.1201L57.251 21.7161C57.5988 17.6554 59.0912 13.7763 61.5547 10.5295C64.0182 7.28282 67.3519 4.8007 71.1689 3.37231L76.0303 1.55396L74.873 3.64575C75.9189 2.65887 77.2278 1.91729 78.7266 1.91724C80.2135 1.91724 81.5117 2.64814 82.5518 3.62329L81.3516 1.46606L86.2217 3.27563Z" fill="#DAC8C8" stroke="white" stroke-width="3.83516"/>
</g>
<defs>
<clipPath id="clip0_7_101">
<rect width="46.789" height="46.789" fill="white" transform="translate(55.3258)"/>
</clipPath>
</defs>
</svg>
